<svg width="21" height="22" viewBox="0 0 21 22" fill="none" xmlns="http://www.w3.org/2000/svg">
<path d="M7.65722 19.7715V16.7048C7.6572 15.9247 8.29312 15.2909 9.081 15.2857H11.9671C12.7587 15.2857 13.4005 15.921 13.4005 16.7048V19.781C13.4003 20.4433 13.9343 20.9846 14.603 21.0001H16.5271C18.4451 21.0001 20 19.4608 20 17.5619V8.83796C19.9898 8.09095 19.6355 7.38947 19.038 6.93315L12.4577 1.68542C11.3049 0.77169 9.6662 0.77169 8.5134 1.68542L1.96203 6.94268C1.36226 7.39714 1.00739 8.09979 1 8.84748V17.5619C1 19.4608 2.55488 21.0001 4.47291 21.0001H6.39696C7.08235 21.0001 7.63797 20.45 7.63797 19.7715" stroke="#8F959E" stroke-width="1.5" stroke-linecap="round" stroke-linejoin="round"/>
</svg>
